<?xml version="1.0" encoding="UTF-8" standalone="no"?>
<!DOCTYPE svg PUBLIC "-//W3C//DTD SVG 1.1//EN"
 "http://www.w3.org/Graphics/SVG/1.1/DTD/svg11.dtd">
<!-- Generated by graphviz version 2.47.0 (20210316.0004)
 -->
<!-- Title: dependencies Pages: 1 -->
<svg width="596pt" height="284pt"
 viewBox="0.00 0.00 596.00 284.00" xmlns="http://www.w3.org/2000/svg" xmlns:xlink="http://www.w3.org/1999/xlink">
<g id="graph0" class="graph" transform="scale(1 1) rotate(0) translate(4 280)">
<title>dependencies</title>
<polygon fill="white" stroke="transparent" points="-4,4 -4,-280 592,-280 592,4 -4,4"/>
<text text-anchor="start" x="273.01" y="-42.4" font-family="sans-serif" font-weight="bold" font-size="14.00">Legend</text>
<polygon fill="#ffffb3" stroke="transparent" points="60,-10 60,-30 80,-30 80,-10 60,-10"/>
<text text-anchor="start" x="83.63" y="-15.4" font-family="sans-serif" font-size="14.00"> &#160;Declarations</text>
<polygon fill="#8dd3c7" stroke="transparent" points="173,-10 173,-30 193,-30 193,-10 173,-10"/>
<text text-anchor="start" x="196.73" y="-15.4" font-family="sans-serif" font-size="14.00"> &#160;Module</text>
<polygon fill="#80b1d3" stroke="transparent" points="259,-10 259,-30 279,-30 279,-10 259,-10"/>
<text text-anchor="start" x="282.78" y="-15.4" font-family="sans-serif" font-size="14.00"> &#160;Bootstrap</text>
<polygon fill="#fdb462" stroke="transparent" points="356,-10 356,-30 376,-30 376,-10 356,-10"/>
<text text-anchor="start" x="379.67" y="-15.4" font-family="sans-serif" font-size="14.00"> &#160;Providers</text>
<polygon fill="#fb8072" stroke="transparent" points="452,-10 452,-30 472,-30 472,-10 452,-10"/>
<text text-anchor="start" x="475.73" y="-15.4" font-family="sans-serif" font-size="14.00"> &#160;Exports</text>
<g id="clust1" class="cluster">
<title>cluster_AccountModule</title>
<polygon fill="none" stroke="black" stroke-dasharray="1,5" points="8,-70 8,-268 580,-268 580,-70 8,-70"/>
</g>
<g id="clust4" class="cluster">
<title>cluster_AccountModule_exports</title>
<polygon fill="none" stroke="black" points="235,-208 235,-260 359,-260 359,-208 235,-208"/>
</g>
<g id="clust3" class="cluster">
<title>cluster_AccountModule_imports</title>
<polygon fill="none" stroke="black" points="186,-78 186,-130 572,-130 572,-78 186,-78"/>
</g>
<g id="clust6" class="cluster">
<title>cluster_AccountModule_providers</title>
<polygon fill="none" stroke="black" points="16,-78 16,-130 178,-130 178,-78 16,-78"/>
</g>
<!-- AuthenticationModule -->
<g id="node1" class="node">
<title>AuthenticationModule</title>
<polygon fill="#8dd3c7" stroke="black" points="564.25,-122 561.25,-126 540.25,-126 537.25,-122 421.75,-122 421.75,-86 564.25,-86 564.25,-122"/>
<text text-anchor="middle" x="493" y="-99.8" font-family="Times,serif" font-size="14.00">AuthenticationModule</text>
</g>
<!-- AccountModule -->
<g id="node4" class="node">
<title>AccountModule</title>
<polygon fill="#8dd3c7" stroke="black" points="350.48,-187 347.48,-191 326.48,-191 323.48,-187 243.52,-187 243.52,-151 350.48,-151 350.48,-187"/>
<text text-anchor="middle" x="297" y="-164.8" font-family="Times,serif" font-size="14.00">AccountModule</text>
</g>
<!-- AuthenticationModule&#45;&gt;AccountModule -->
<g id="edge1" class="edge">
<title>AuthenticationModule&#45;&gt;AccountModule</title>
<path fill="none" stroke="black" d="M493,-122.11C493,-141.34 493,-169 493,-169 493,-169 360.56,-169 360.56,-169"/>
<polygon fill="black" stroke="black" points="360.56,-165.5 350.56,-169 360.56,-172.5 360.56,-165.5"/>
</g>
<!-- LoggerModule -->
<g id="node2" class="node">
<title>LoggerModule</title>
<polygon fill="#8dd3c7" stroke="black" points="403.98,-122 400.98,-126 379.98,-126 376.98,-122 304.02,-122 304.02,-86 403.98,-86 403.98,-122"/>
<text text-anchor="middle" x="354" y="-99.8" font-family="Times,serif" font-size="14.00">LoggerModule</text>
</g>
<!-- LoggerModule&#45;&gt;AccountModule -->
<g id="edge2" class="edge">
<title>LoggerModule&#45;&gt;AccountModule</title>
<path fill="none" stroke="black" d="M327.25,-122.11C327.25,-122.11 327.25,-140.99 327.25,-140.99"/>
<polygon fill="black" stroke="black" points="323.75,-140.99 327.25,-150.99 330.75,-140.99 323.75,-140.99"/>
</g>
<!-- RedisModule -->
<g id="node3" class="node">
<title>RedisModule</title>
<polygon fill="#8dd3c7" stroke="black" points="285.94,-122 282.94,-126 261.94,-126 258.94,-122 194.06,-122 194.06,-86 285.94,-86 285.94,-122"/>
<text text-anchor="middle" x="240" y="-99.8" font-family="Times,serif" font-size="14.00">RedisModule</text>
</g>
<!-- RedisModule&#45;&gt;AccountModule -->
<g id="edge3" class="edge">
<title>RedisModule&#45;&gt;AccountModule</title>
<path fill="none" stroke="black" d="M264.62,-122.11C264.62,-122.11 264.62,-140.99 264.62,-140.99"/>
<polygon fill="black" stroke="black" points="261.12,-140.99 264.62,-150.99 268.12,-140.99 261.12,-140.99"/>
</g>
<!-- AccountService  -->
<g id="node5" class="node">
<title>AccountService </title>
<polygon fill="#fb8072" stroke="black" points="351.4,-252 242.6,-252 242.6,-216 351.4,-216 351.4,-252"/>
<text text-anchor="middle" x="297" y="-229.8" font-family="Times,serif" font-size="14.00">AccountService </text>
</g>
<!-- AccountModule&#45;&gt;AccountService  -->
<g id="edge4" class="edge">
<title>AccountModule&#45;&gt;AccountService </title>
<path fill="none" stroke="black" stroke-dasharray="5,2" d="M297,-187.11C297,-187.11 297,-205.99 297,-205.99"/>
<polygon fill="black" stroke="black" points="293.5,-205.99 297,-215.99 300.5,-205.99 293.5,-205.99"/>
</g>
<!-- AccountService -->
<g id="node6" class="node">
<title>AccountService</title>
<ellipse fill="#fdb462" stroke="black" cx="97" cy="-104" rx="72.91" ry="18"/>
<text text-anchor="middle" x="97" y="-99.8" font-family="Times,serif" font-size="14.00">AccountService</text>
</g>
<!-- AccountService&#45;&gt;AccountModule -->
<g id="edge5" class="edge">
<title>AccountService&#45;&gt;AccountModule</title>
<path fill="none" stroke="black" d="M97,-122.11C97,-141.34 97,-169 97,-169 97,-169 233.4,-169 233.4,-169"/>
<polygon fill="black" stroke="black" points="233.4,-172.5 243.4,-169 233.4,-165.5 233.4,-172.5"/>
</g>
</g>
</svg>
