<?xml version="1.0" encoding="UTF-8" standalone="no"?>
<!DOCTYPE svg PUBLIC "-//W3C//DTD SVG 1.1//EN"
 "http://www.w3.org/Graphics/SVG/1.1/DTD/svg11.dtd">
<!-- Generated by graphviz version 2.47.0 (20210316.0004)
 -->
<!-- Title: dependencies Pages: 1 -->
<svg width="599pt" height="211pt"
 viewBox="0.00 0.00 599.00 211.00" xmlns="http://www.w3.org/2000/svg" xmlns:xlink="http://www.w3.org/1999/xlink">
<g id="graph0" class="graph" transform="scale(1 1) rotate(0) translate(4 207)">
<title>dependencies</title>
<polygon fill="white" stroke="transparent" points="-4,4 -4,-207 595,-207 595,4 -4,4"/>
<text text-anchor="start" x="274.51" y="-42.4" font-family="sans-serif" font-weight="bold" font-size="14.00">Legend</text>
<polygon fill="#ffffb3" stroke="transparent" points="61.5,-10 61.5,-30 81.5,-30 81.5,-10 61.5,-10"/>
<text text-anchor="start" x="85.13" y="-15.4" font-family="sans-serif" font-size="14.00"> &#160;Declarations</text>
<polygon fill="#8dd3c7" stroke="transparent" points="174.5,-10 174.5,-30 194.5,-30 194.5,-10 174.5,-10"/>
<text text-anchor="start" x="198.23" y="-15.4" font-family="sans-serif" font-size="14.00"> &#160;Module</text>
<polygon fill="#80b1d3" stroke="transparent" points="260.5,-10 260.5,-30 280.5,-30 280.5,-10 260.5,-10"/>
<text text-anchor="start" x="284.28" y="-15.4" font-family="sans-serif" font-size="14.00"> &#160;Bootstrap</text>
<polygon fill="#fdb462" stroke="transparent" points="357.5,-10 357.5,-30 377.5,-30 377.5,-10 357.5,-10"/>
<text text-anchor="start" x="381.17" y="-15.4" font-family="sans-serif" font-size="14.00"> &#160;Providers</text>
<polygon fill="#fb8072" stroke="transparent" points="453.5,-10 453.5,-30 473.5,-30 473.5,-10 453.5,-10"/>
<text text-anchor="start" x="477.23" y="-15.4" font-family="sans-serif" font-size="14.00"> &#160;Exports</text>
<g id="clust1" class="cluster">
<title>cluster_AppModule</title>
<polygon fill="none" stroke="black" stroke-dasharray="1,5" points="8,-70 8,-195 583,-195 583,-70 8,-70"/>
</g>
<g id="clust3" class="cluster">
<title>cluster_AppModule_imports</title>
<polygon fill="none" stroke="black" points="16,-78 16,-130 575,-130 575,-78 16,-78"/>
</g>
<!-- AccountModule -->
<g id="node1" class="node">
<title>AccountModule</title>
<polygon fill="#8dd3c7" stroke="black" points="567.48,-122 564.48,-126 543.48,-126 540.48,-122 460.52,-122 460.52,-86 567.48,-86 567.48,-122"/>
<text text-anchor="middle" x="514" y="-99.8" font-family="Times,serif" font-size="14.00">AccountModule</text>
</g>
<!-- AppModule -->
<g id="node5" class="node">
<title>AppModule</title>
<polygon fill="#8dd3c7" stroke="black" points="333.66,-187 330.66,-191 309.66,-191 306.66,-187 250.34,-187 250.34,-151 333.66,-151 333.66,-187"/>
<text text-anchor="middle" x="292" y="-164.8" font-family="Times,serif" font-size="14.00">AppModule</text>
</g>
<!-- AccountModule&#45;&gt;AppModule -->
<g id="edge1" class="edge">
<title>AccountModule&#45;&gt;AppModule</title>
<path fill="none" stroke="black" d="M514,-122.11C514,-141.34 514,-169 514,-169 514,-169 343.76,-169 343.76,-169"/>
<polygon fill="black" stroke="black" points="343.76,-165.5 333.76,-169 343.76,-172.5 343.76,-165.5"/>
</g>
<!-- AuthenticationModule -->
<g id="node2" class="node">
<title>AuthenticationModule</title>
<polygon fill="#8dd3c7" stroke="black" points="442.25,-122 439.25,-126 418.25,-126 415.25,-122 299.75,-122 299.75,-86 442.25,-86 442.25,-122"/>
<text text-anchor="middle" x="371" y="-99.8" font-family="Times,serif" font-size="14.00">AuthenticationModule</text>
</g>
<!-- AuthenticationModule&#45;&gt;AppModule -->
<g id="edge2" class="edge">
<title>AuthenticationModule&#45;&gt;AppModule</title>
<path fill="none" stroke="black" d="M316.73,-122.11C316.73,-122.11 316.73,-140.99 316.73,-140.99"/>
<polygon fill="black" stroke="black" points="313.23,-140.99 316.73,-150.99 320.23,-140.99 313.23,-140.99"/>
</g>
<!-- ConfigurationModule -->
<g id="node3" class="node">
<title>ConfigurationModule</title>
<polygon fill="#8dd3c7" stroke="black" points="282.09,-122 279.09,-126 258.09,-126 255.09,-122 143.91,-122 143.91,-86 282.09,-86 282.09,-122"/>
<text text-anchor="middle" x="213" y="-99.8" font-family="Times,serif" font-size="14.00">ConfigurationModule</text>
</g>
<!-- ConfigurationModule&#45;&gt;AppModule -->
<g id="edge3" class="edge">
<title>ConfigurationModule&#45;&gt;AppModule</title>
<path fill="none" stroke="black" d="M266.11,-122.11C266.11,-122.11 266.11,-140.99 266.11,-140.99"/>
<polygon fill="black" stroke="black" points="262.61,-140.99 266.11,-150.99 269.61,-140.99 262.61,-140.99"/>
</g>
<!-- SessionModule -->
<g id="node4" class="node">
<title>SessionModule</title>
<polygon fill="#8dd3c7" stroke="black" points="126.33,-122 123.33,-126 102.33,-126 99.33,-122 23.67,-122 23.67,-86 126.33,-86 126.33,-122"/>
<text text-anchor="middle" x="75" y="-99.8" font-family="Times,serif" font-size="14.00">SessionModule</text>
</g>
<!-- SessionModule&#45;&gt;AppModule -->
<g id="edge4" class="edge">
<title>SessionModule&#45;&gt;AppModule</title>
<path fill="none" stroke="black" d="M75,-122.11C75,-141.34 75,-169 75,-169 75,-169 240.16,-169 240.16,-169"/>
<polygon fill="black" stroke="black" points="240.16,-172.5 250.16,-169 240.16,-165.5 240.16,-172.5"/>
</g>
</g>
</svg>
