<?xml version="1.0" encoding="UTF-8" standalone="no"?>
<!DOCTYPE svg PUBLIC "-//W3C//DTD SVG 1.1//EN"
 "http://www.w3.org/Graphics/SVG/1.1/DTD/svg11.dtd">
<!-- Generated by graphviz version 2.47.0 (20210316.0004)
 -->
<!-- Title: dependencies Pages: 1 -->
<svg width="558pt" height="211pt"
 viewBox="0.00 0.00 558.00 211.00" xmlns="http://www.w3.org/2000/svg" xmlns:xlink="http://www.w3.org/1999/xlink">
<g id="graph0" class="graph" transform="scale(1 1) rotate(0) translate(4 207)">
<title>dependencies</title>
<polygon fill="white" stroke="transparent" points="-4,4 -4,-207 554,-207 554,4 -4,4"/>
<text text-anchor="start" x="254.01" y="-42.4" font-family="sans-serif" font-weight="bold" font-size="14.00">Legend</text>
<polygon fill="#ffffb3" stroke="transparent" points="41,-10 41,-30 61,-30 61,-10 41,-10"/>
<text text-anchor="start" x="64.63" y="-15.4" font-family="sans-serif" font-size="14.00"> &#160;Declarations</text>
<polygon fill="#8dd3c7" stroke="transparent" points="154,-10 154,-30 174,-30 174,-10 154,-10"/>
<text text-anchor="start" x="177.73" y="-15.4" font-family="sans-serif" font-size="14.00"> &#160;Module</text>
<polygon fill="#80b1d3" stroke="transparent" points="240,-10 240,-30 260,-30 260,-10 240,-10"/>
<text text-anchor="start" x="263.78" y="-15.4" font-family="sans-serif" font-size="14.00"> &#160;Bootstrap</text>
<polygon fill="#fdb462" stroke="transparent" points="337,-10 337,-30 357,-30 357,-10 337,-10"/>
<text text-anchor="start" x="360.67" y="-15.4" font-family="sans-serif" font-size="14.00"> &#160;Providers</text>
<polygon fill="#fb8072" stroke="transparent" points="433,-10 433,-30 453,-30 453,-10 433,-10"/>
<text text-anchor="start" x="456.73" y="-15.4" font-family="sans-serif" font-size="14.00"> &#160;Exports</text>
<g id="clust1" class="cluster">
<title>cluster_SessionModule</title>
<polygon fill="none" stroke="black" stroke-dasharray="1,5" points="8,-70 8,-195 542,-195 542,-70 8,-70"/>
</g>
<g id="clust3" class="cluster">
<title>cluster_SessionModule_imports</title>
<polygon fill="none" stroke="black" points="302,-78 302,-130 534,-130 534,-78 302,-78"/>
</g>
<g id="clust6" class="cluster">
<title>cluster_SessionModule_providers</title>
<polygon fill="none" stroke="black" points="16,-78 16,-130 294,-130 294,-78 16,-78"/>
</g>
<!-- AccountModule -->
<g id="node1" class="node">
<title>AccountModule</title>
<polygon fill="#8dd3c7" stroke="black" points="526.48,-122 523.48,-126 502.48,-126 499.48,-122 419.52,-122 419.52,-86 526.48,-86 526.48,-122"/>
<text text-anchor="middle" x="473" y="-99.8" font-family="Times,serif" font-size="14.00">AccountModule</text>
</g>
<!-- SessionModule -->
<g id="node3" class="node">
<title>SessionModule</title>
<polygon fill="#8dd3c7" stroke="black" points="407.33,-187 404.33,-191 383.33,-191 380.33,-187 304.67,-187 304.67,-151 407.33,-151 407.33,-187"/>
<text text-anchor="middle" x="356" y="-164.8" font-family="Times,serif" font-size="14.00">SessionModule</text>
</g>
<!-- AccountModule&#45;&gt;SessionModule -->
<g id="edge1" class="edge">
<title>AccountModule&#45;&gt;SessionModule</title>
<path fill="none" stroke="black" d="M473,-122.11C473,-141.34 473,-169 473,-169 473,-169 417.32,-169 417.32,-169"/>
<polygon fill="black" stroke="black" points="417.32,-165.5 407.32,-169 417.32,-172.5 417.32,-165.5"/>
</g>
<!-- RedisModule -->
<g id="node2" class="node">
<title>RedisModule</title>
<polygon fill="#8dd3c7" stroke="black" points="401.94,-122 398.94,-126 377.94,-126 374.94,-122 310.06,-122 310.06,-86 401.94,-86 401.94,-122"/>
<text text-anchor="middle" x="356" y="-99.8" font-family="Times,serif" font-size="14.00">RedisModule</text>
</g>
<!-- RedisModule&#45;&gt;SessionModule -->
<g id="edge2" class="edge">
<title>RedisModule&#45;&gt;SessionModule</title>
<path fill="none" stroke="black" d="M356,-122.11C356,-122.11 356,-140.99 356,-140.99"/>
<polygon fill="black" stroke="black" points="352.5,-140.99 356,-150.99 359.5,-140.99 352.5,-140.99"/>
</g>
<!-- RedisSubscribeExpiredService -->
<g id="node4" class="node">
<title>RedisSubscribeExpiredService</title>
<ellipse fill="#fdb462" stroke="black" cx="155" cy="-104" rx="130.78" ry="18"/>
<text text-anchor="middle" x="155" y="-99.8" font-family="Times,serif" font-size="14.00">RedisSubscribeExpiredService</text>
</g>
<!-- RedisSubscribeExpiredService&#45;&gt;SessionModule -->
<g id="edge3" class="edge">
<title>RedisSubscribeExpiredService&#45;&gt;SessionModule</title>
<path fill="none" stroke="black" d="M155,-122.11C155,-141.34 155,-169 155,-169 155,-169 294.76,-169 294.76,-169"/>
<polygon fill="black" stroke="black" points="294.76,-172.5 304.76,-169 294.76,-165.5 294.76,-172.5"/>
</g>
</g>
</svg>
