<?xml version="1.0" encoding="UTF-8" standalone="no"?>
<!DOCTYPE svg PUBLIC "-//W3C//DTD SVG 1.1//EN"
 "http://www.w3.org/Graphics/SVG/1.1/DTD/svg11.dtd">
<!-- Generated by graphviz version 2.47.0 (20210316.0004)
 -->
<!-- Title: dependencies Pages: 1 -->
<svg width="1731pt" height="428pt"
 viewBox="0.00 0.00 1731.00 428.00" xmlns="http://www.w3.org/2000/svg" xmlns:xlink="http://www.w3.org/1999/xlink">
<g id="graph0" class="graph" transform="scale(1 1) rotate(0) translate(4 424)">
<title>dependencies</title>
<polygon fill="white" stroke="transparent" points="-4,4 -4,-424 1727,-424 1727,4 -4,4"/>
<text text-anchor="start" x="840.51" y="-42.4" font-family="sans-serif" font-weight="bold" font-size="14.00">Legend</text>
<polygon fill="#ffffb3" stroke="transparent" points="627.5,-10 627.5,-30 647.5,-30 647.5,-10 627.5,-10"/>
<text text-anchor="start" x="651.13" y="-15.4" font-family="sans-serif" font-size="14.00"> &#160;Declarations</text>
<polygon fill="#8dd3c7" stroke="transparent" points="740.5,-10 740.5,-30 760.5,-30 760.5,-10 740.5,-10"/>
<text text-anchor="start" x="764.23" y="-15.4" font-family="sans-serif" font-size="14.00"> &#160;Module</text>
<polygon fill="#80b1d3" stroke="transparent" points="826.5,-10 826.5,-30 846.5,-30 846.5,-10 826.5,-10"/>
<text text-anchor="start" x="850.28" y="-15.4" font-family="sans-serif" font-size="14.00"> &#160;Bootstrap</text>
<polygon fill="#fdb462" stroke="transparent" points="923.5,-10 923.5,-30 943.5,-30 943.5,-10 923.5,-10"/>
<text text-anchor="start" x="947.17" y="-15.4" font-family="sans-serif" font-size="14.00"> &#160;Providers</text>
<polygon fill="#fb8072" stroke="transparent" points="1019.5,-10 1019.5,-30 1039.5,-30 1039.5,-10 1019.5,-10"/>
<text text-anchor="start" x="1043.23" y="-15.4" font-family="sans-serif" font-size="14.00"> &#160;Exports</text>
<g id="clust1" class="cluster">
<title>cluster_AccountModule</title>
<polygon fill="none" stroke="black" stroke-dasharray="1,5" points="8,-70 8,-355 420,-355 420,-70 8,-70"/>
</g>
<g id="clust3" class="cluster">
<title>cluster_AccountModule_imports</title>
<polygon fill="none" stroke="black" points="186,-78 186,-195 412,-195 412,-78 186,-78"/>
</g>
<g id="clust4" class="cluster">
<title>cluster_AccountModule_exports</title>
<polygon fill="none" stroke="black" points="288,-295 288,-347 412,-347 412,-295 288,-295"/>
</g>
<g id="clust6" class="cluster">
<title>cluster_AccountModule_providers</title>
<polygon fill="none" stroke="black" points="16,-143 16,-195 178,-195 178,-143 16,-143"/>
</g>
<g id="clust7" class="cluster">
<title>cluster_AppModule</title>
<polygon fill="none" stroke="black" stroke-dasharray="1,5" points="453,-287 453,-412 743,-412 743,-287 453,-287"/>
</g>
<g id="clust9" class="cluster">
<title>cluster_AppModule_imports</title>
<polygon fill="none" stroke="black" points="461,-295 461,-347 735,-347 735,-295 461,-295"/>
</g>
<g id="clust13" class="cluster">
<title>cluster_AuthenticationModule</title>
<polygon fill="none" stroke="black" stroke-dasharray="1,5" points="1122,-211 1122,-279 1516,-279 1516,-211 1122,-211"/>
</g>
<g id="clust16" class="cluster">
<title>cluster_AuthenticationModule_exports</title>
<polygon fill="none" stroke="black" points="1348,-219 1348,-271 1508,-271 1508,-219 1348,-219"/>
</g>
<g id="clust18" class="cluster">
<title>cluster_AuthenticationModule_providers</title>
<polygon fill="none" stroke="black" points="1130,-219 1130,-271 1340,-271 1340,-219 1130,-219"/>
</g>
<g id="clust19" class="cluster">
<title>cluster_ConfigurationModule</title>
<polygon fill="none" stroke="black" stroke-dasharray="1,5" points="428,-211 428,-279 812,-279 812,-211 428,-211"/>
</g>
<g id="clust22" class="cluster">
<title>cluster_ConfigurationModule_exports</title>
<polygon fill="none" stroke="black" points="648,-219 648,-271 804,-271 804,-219 648,-219"/>
</g>
<g id="clust24" class="cluster">
<title>cluster_ConfigurationModule_providers</title>
<polygon fill="none" stroke="black" points="436,-219 436,-271 640,-271 640,-219 436,-219"/>
</g>
<g id="clust25" class="cluster">
<title>cluster_LoggerModule</title>
<polygon fill="none" stroke="black" stroke-dasharray="1,5" points="428,-135 428,-203 564,-203 564,-135 428,-135"/>
</g>
<g id="clust28" class="cluster">
<title>cluster_LoggerModule_exports</title>
<polygon fill="none" stroke="black" points="436,-143 436,-195 556,-195 556,-143 436,-143"/>
</g>
<g id="clust31" class="cluster">
<title>cluster_RedisModule</title>
<polygon fill="none" stroke="black" stroke-dasharray="1,5" points="572,-135 572,-203 1715,-203 1715,-135 572,-135"/>
</g>
<g id="clust34" class="cluster">
<title>cluster_RedisModule_exports</title>
<polygon fill="none" stroke="black" points="1222,-143 1222,-195 1707,-195 1707,-143 1222,-143"/>
</g>
<g id="clust36" class="cluster">
<title>cluster_RedisModule_providers</title>
<polygon fill="none" stroke="black" points="580,-143 580,-195 1214,-195 1214,-143 580,-143"/>
</g>
<g id="clust37" class="cluster">
<title>cluster_SessionModule</title>
<polygon fill="none" stroke="black" stroke-dasharray="1,5" points="820,-211 820,-279 1114,-279 1114,-211 820,-211"/>
</g>
<g id="clust42" class="cluster">
<title>cluster_SessionModule_providers</title>
<polygon fill="none" stroke="black" points="828,-219 828,-271 1106,-271 1106,-219 828,-219"/>
</g>
<!-- AuthenticationModule -->
<g id="node1" class="node">
<title>AuthenticationModule</title>
<polygon fill="#8dd3c7" stroke="black" points="339.25,-187 336.25,-191 315.25,-191 312.25,-187 196.75,-187 196.75,-151 339.25,-151 339.25,-187"/>
<text text-anchor="middle" x="268" y="-164.8" font-family="Times,serif" font-size="14.00">AuthenticationModule</text>
</g>
<!-- AccountModule -->
<g id="node4" class="node">
<title>AccountModule</title>
<polygon fill="#8dd3c7" stroke="black" points="411.48,-263 408.48,-267 387.48,-267 384.48,-263 304.52,-263 304.52,-227 411.48,-227 411.48,-263"/>
<text text-anchor="middle" x="358" y="-240.8" font-family="Times,serif" font-size="14.00">AccountModule</text>
</g>
<!-- AuthenticationModule&#45;&gt;AccountModule -->
<g id="edge1" class="edge">
<title>AuthenticationModule&#45;&gt;AccountModule</title>
<path fill="none" stroke="black" d="M313.23,-187.01C313.23,-187.01 313.23,-216.85 313.23,-216.85"/>
<polygon fill="black" stroke="black" points="309.73,-216.85 313.23,-226.85 316.73,-216.85 309.73,-216.85"/>
</g>
<!-- AppModule -->
<g id="node9" class="node">
<title>AppModule</title>
<polygon fill="#8dd3c7" stroke="black" points="561.66,-404 558.66,-408 537.66,-408 534.66,-404 478.34,-404 478.34,-368 561.66,-368 561.66,-404"/>
<text text-anchor="middle" x="520" y="-381.8" font-family="Times,serif" font-size="14.00">AppModule</text>
</g>
<!-- AuthenticationModule&#45;&gt;AppModule -->
<g id="edge7" class="edge">
<title>AuthenticationModule&#45;&gt;AppModule</title>
<path fill="none" stroke="black" d="M246.09,-187.25C246.09,-240.51 246.09,-392 246.09,-392 246.09,-392 468.1,-392 468.1,-392"/>
<polygon fill="black" stroke="black" points="468.1,-395.5 478.1,-392 468.1,-388.5 468.1,-395.5"/>
</g>
<!-- AuthenticationService  -->
<g id="node10" class="node">
<title>AuthenticationService </title>
<polygon fill="#fb8072" stroke="black" points="1500.18,-263 1355.82,-263 1355.82,-227 1500.18,-227 1500.18,-263"/>
<text text-anchor="middle" x="1428" y="-240.8" font-family="Times,serif" font-size="14.00">AuthenticationService </text>
</g>
<!-- AuthenticationModule&#45;&gt;AuthenticationService  -->
<g id="edge11" class="edge">
<title>AuthenticationModule&#45;&gt;AuthenticationService </title>
<path fill="none" stroke="black" stroke-dasharray="5,2" d="M321.94,-187.21C321.94,-192.55 321.94,-197 321.94,-197 321.94,-197 1369.64,-197 1369.64,-197 1369.64,-197 1369.64,-216.85 1369.64,-216.85"/>
<polygon fill="black" stroke="black" points="1366.14,-216.85 1369.64,-226.85 1373.14,-216.85 1366.14,-216.85"/>
</g>
<!-- LoggerModule -->
<g id="node2" class="node">
<title>LoggerModule</title>
<polygon fill="#8dd3c7" stroke="black" points="293.98,-122 290.98,-126 269.98,-126 266.98,-122 194.02,-122 194.02,-86 293.98,-86 293.98,-122"/>
<text text-anchor="middle" x="244" y="-99.8" font-family="Times,serif" font-size="14.00">LoggerModule</text>
</g>
<!-- LoggerModule&#45;&gt;AccountModule -->
<g id="edge2" class="edge">
<title>LoggerModule&#45;&gt;AccountModule</title>
<path fill="none" stroke="black" d="M229.08,-122.11C229.08,-131.9 229.08,-142 229.08,-142 229.08,-142 355.46,-142 355.46,-142 355.46,-142 355.46,-216.59 355.46,-216.59"/>
<polygon fill="black" stroke="black" points="351.96,-216.59 355.46,-226.59 358.96,-216.59 351.96,-216.59"/>
</g>
<!-- CustomLogger  -->
<g id="node14" class="node">
<title>CustomLogger </title>
<polygon fill="#fb8072" stroke="black" points="547.99,-187 444.01,-187 444.01,-151 547.99,-151 547.99,-187"/>
<text text-anchor="middle" x="496" y="-164.8" font-family="Times,serif" font-size="14.00">CustomLogger </text>
</g>
<!-- LoggerModule&#45;&gt;CustomLogger  -->
<g id="edge15" class="edge">
<title>LoggerModule&#45;&gt;CustomLogger </title>
<path fill="none" stroke="black" stroke-dasharray="5,2" d="M261.53,-122.21C261.53,-127.55 261.53,-132 261.53,-132 261.53,-132 496,-132 496,-132 496,-132 496,-140.93 496,-140.93"/>
<polygon fill="black" stroke="black" points="492.5,-140.93 496,-150.93 499.5,-140.93 492.5,-140.93"/>
</g>
<!-- RedisModule -->
<g id="node3" class="node">
<title>RedisModule</title>
<polygon fill="#8dd3c7" stroke="black" points="403.94,-122 400.94,-126 379.94,-126 376.94,-122 312.06,-122 312.06,-86 403.94,-86 403.94,-122"/>
<text text-anchor="middle" x="358" y="-99.8" font-family="Times,serif" font-size="14.00">RedisModule</text>
</g>
<!-- RedisModule&#45;&gt;AuthenticationModule -->
<g id="edge10" class="edge">
<title>RedisModule&#45;&gt;AuthenticationModule</title>
<path fill="none" stroke="black" d="M325.83,-122.11C325.83,-122.11 325.83,-140.99 325.83,-140.99"/>
<polygon fill="black" stroke="black" points="322.33,-140.99 325.83,-150.99 329.33,-140.99 322.33,-140.99"/>
</g>
<!-- RedisModule&#45;&gt;AccountModule -->
<g id="edge3" class="edge">
<title>RedisModule&#45;&gt;AccountModule</title>
<path fill="none" stroke="black" d="M371.55,-122.14C371.55,-122.14 371.55,-216.93 371.55,-216.93"/>
<polygon fill="black" stroke="black" points="368.05,-216.92 371.55,-226.93 375.05,-216.93 368.05,-216.92"/>
</g>
<!-- SessionModule -->
<g id="node8" class="node">
<title>SessionModule</title>
<polygon fill="#8dd3c7" stroke="black" points="727.33,-339 724.33,-343 703.33,-343 700.33,-339 624.67,-339 624.67,-303 727.33,-303 727.33,-339"/>
<text text-anchor="middle" x="676" y="-316.8" font-family="Times,serif" font-size="14.00">SessionModule</text>
</g>
<!-- RedisModule&#45;&gt;SessionModule -->
<g id="edge23" class="edge">
<title>RedisModule&#45;&gt;SessionModule</title>
<path fill="none" stroke="black" d="M387.63,-122.16C387.63,-154.1 387.63,-217 387.63,-217 387.63,-217 644.08,-217 644.08,-217 644.08,-217 644.08,-292.88 644.08,-292.88"/>
<polygon fill="black" stroke="black" points="640.58,-292.88 644.08,-302.88 647.58,-292.88 640.58,-292.88"/>
</g>
<!-- RedisConnectService  -->
<g id="node15" class="node">
<title>RedisConnectService </title>
<polygon fill="#fb8072" stroke="black" points="1699.02,-187 1558.98,-187 1558.98,-151 1699.02,-151 1699.02,-187"/>
<text text-anchor="middle" x="1629" y="-164.8" font-family="Times,serif" font-size="14.00">RedisConnectService </text>
</g>
<!-- RedisModule&#45;&gt;RedisConnectService  -->
<g id="edge16" class="edge">
<title>RedisModule&#45;&gt;RedisConnectService </title>
<path fill="none" stroke="black" stroke-dasharray="5,2" d="M403.99,-92C631.85,-92 1629,-92 1629,-92 1629,-92 1629,-140.75 1629,-140.75"/>
<polygon fill="black" stroke="black" points="1625.5,-140.75 1629,-150.75 1632.5,-140.75 1625.5,-140.75"/>
</g>
<!-- RedisPromiseService  -->
<g id="node16" class="node">
<title>RedisPromiseService </title>
<polygon fill="#fb8072" stroke="black" points="1540.75,-187 1401.25,-187 1401.25,-151 1540.75,-151 1540.75,-187"/>
<text text-anchor="middle" x="1471" y="-164.8" font-family="Times,serif" font-size="14.00">RedisPromiseService </text>
</g>
<!-- RedisModule&#45;&gt;RedisPromiseService  -->
<g id="edge17" class="edge">
<title>RedisModule&#45;&gt;RedisPromiseService </title>
<path fill="none" stroke="black" stroke-dasharray="5,2" d="M404.06,-97C614.1,-97 1471,-97 1471,-97 1471,-97 1471,-140.83 1471,-140.83"/>
<polygon fill="black" stroke="black" points="1467.5,-140.83 1471,-150.83 1474.5,-140.83 1467.5,-140.83"/>
</g>
<!-- RedisSubscriberService  -->
<g id="node17" class="node">
<title>RedisSubscriberService </title>
<polygon fill="#fb8072" stroke="black" points="1383.73,-187 1230.27,-187 1230.27,-151 1383.73,-151 1383.73,-187"/>
<text text-anchor="middle" x="1307" y="-164.8" font-family="Times,serif" font-size="14.00">RedisSubscriberService </text>
</g>
<!-- RedisModule&#45;&gt;RedisSubscriberService  -->
<g id="edge18" class="edge">
<title>RedisModule&#45;&gt;RedisSubscriberService </title>
<path fill="none" stroke="black" stroke-dasharray="5,2" d="M403.77,-102C593.34,-102 1307,-102 1307,-102 1307,-102 1307,-140.69 1307,-140.69"/>
<polygon fill="black" stroke="black" points="1303.5,-140.69 1307,-150.69 1310.5,-140.69 1303.5,-140.69"/>
</g>
<!-- AccountService  -->
<g id="node5" class="node">
<title>AccountService </title>
<polygon fill="#fb8072" stroke="black" points="404.4,-339 295.6,-339 295.6,-303 404.4,-303 404.4,-339"/>
<text text-anchor="middle" x="350" y="-316.8" font-family="Times,serif" font-size="14.00">AccountService </text>
</g>
<!-- AccountModule&#45;&gt;AccountService  -->
<g id="edge4" class="edge">
<title>AccountModule&#45;&gt;AccountService </title>
<path fill="none" stroke="black" stroke-dasharray="5,2" d="M354.48,-263.01C354.48,-263.01 354.48,-292.85 354.48,-292.85"/>
<polygon fill="black" stroke="black" points="350.98,-292.85 354.48,-302.85 357.98,-292.85 350.98,-292.85"/>
</g>
<!-- AccountModule&#45;&gt;SessionModule -->
<g id="edge22" class="edge">
<title>AccountModule&#45;&gt;SessionModule</title>
<path fill="none" stroke="black" d="M406.8,-263.24C406.8,-270.43 406.8,-277 406.8,-277 406.8,-277 628.5,-277 628.5,-277 628.5,-277 628.5,-292.85 628.5,-292.85"/>
<polygon fill="black" stroke="black" points="625,-292.85 628.5,-302.85 632,-292.85 625,-292.85"/>
</g>
<!-- AccountModule&#45;&gt;AppModule -->
<g id="edge6" class="edge">
<title>AccountModule&#45;&gt;AppModule</title>
<path fill="none" stroke="black" d="M409.14,-263.21C409.14,-300.06 409.14,-380 409.14,-380 409.14,-380 468.09,-380 468.09,-380"/>
<polygon fill="black" stroke="black" points="468.09,-383.5 478.09,-380 468.09,-376.5 468.09,-383.5"/>
</g>
<!-- AccountService -->
<g id="node6" class="node">
<title>AccountService</title>
<ellipse fill="#fdb462" stroke="black" cx="97" cy="-169" rx="72.91" ry="18"/>
<text text-anchor="middle" x="97" y="-164.8" font-family="Times,serif" font-size="14.00">AccountService</text>
</g>
<!-- AccountService&#45;&gt;AccountModule -->
<g id="edge5" class="edge">
<title>AccountService&#45;&gt;AccountModule</title>
<path fill="none" stroke="black" d="M97,-187.01C97,-209.49 97,-245 97,-245 97,-245 294.24,-245 294.24,-245"/>
<polygon fill="black" stroke="black" points="294.24,-248.5 304.24,-245 294.24,-241.5 294.24,-248.5"/>
</g>
<!-- ConfigurationModule -->
<g id="node7" class="node">
<title>ConfigurationModule</title>
<polygon fill="#8dd3c7" stroke="black" points="607.09,-339 604.09,-343 583.09,-343 580.09,-339 468.91,-339 468.91,-303 607.09,-303 607.09,-339"/>
<text text-anchor="middle" x="538" y="-316.8" font-family="Times,serif" font-size="14.00">ConfigurationModule</text>
</g>
<!-- ConfigurationModule&#45;&gt;AppModule -->
<g id="edge8" class="edge">
<title>ConfigurationModule&#45;&gt;AppModule</title>
<path fill="none" stroke="black" d="M520,-339.11C520,-339.11 520,-357.99 520,-357.99"/>
<polygon fill="black" stroke="black" points="516.5,-357.99 520,-367.99 523.5,-357.99 516.5,-357.99"/>
</g>
<!-- ConfigurationService  -->
<g id="node12" class="node">
<title>ConfigurationService </title>
<polygon fill="#fb8072" stroke="black" points="796.02,-263 655.98,-263 655.98,-227 796.02,-227 796.02,-263"/>
<text text-anchor="middle" x="726" y="-240.8" font-family="Times,serif" font-size="14.00">ConfigurationService </text>
</g>
<!-- ConfigurationModule&#45;&gt;ConfigurationService  -->
<g id="edge13" class="edge">
<title>ConfigurationModule&#45;&gt;ConfigurationService </title>
<path fill="none" stroke="black" stroke-dasharray="5,2" d="M561.02,-302.97C561.02,-296.15 561.02,-290 561.02,-290 561.02,-290 691.58,-290 691.58,-290 691.58,-290 691.58,-273.04 691.58,-273.04"/>
<polygon fill="black" stroke="black" points="695.08,-273.04 691.58,-263.04 688.08,-273.04 695.08,-273.04"/>
</g>
<!-- SessionModule&#45;&gt;AppModule -->
<g id="edge9" class="edge">
<title>SessionModule&#45;&gt;AppModule</title>
<path fill="none" stroke="black" d="M676,-339.11C676,-358.34 676,-386 676,-386 676,-386 571.81,-386 571.81,-386"/>
<polygon fill="black" stroke="black" points="571.81,-382.5 561.81,-386 571.81,-389.5 571.81,-382.5"/>
</g>
<!-- AuthenticationService -->
<g id="node11" class="node">
<title>AuthenticationService</title>
<ellipse fill="#fdb462" stroke="black" cx="1235" cy="-245" rx="97.27" ry="18"/>
<text text-anchor="middle" x="1235" y="-240.8" font-family="Times,serif" font-size="14.00">AuthenticationService</text>
</g>
<!-- AuthenticationService&#45;&gt;AuthenticationModule -->
<g id="edge12" class="edge">
<title>AuthenticationService&#45;&gt;AuthenticationModule</title>
<path fill="none" stroke="black" d="M1171.89,-231.28C1171.89,-220.4 1171.89,-207 1171.89,-207 1171.89,-207 330.66,-207 330.66,-207 330.66,-207 330.66,-197.11 330.66,-197.11"/>
<polygon fill="black" stroke="black" points="334.16,-197.11 330.66,-187.11 327.16,-197.11 334.16,-197.11"/>
</g>
<!-- ConfigurationService -->
<g id="node13" class="node">
<title>ConfigurationService</title>
<ellipse fill="#fdb462" stroke="black" cx="538" cy="-245" rx="94.34" ry="18"/>
<text text-anchor="middle" x="538" y="-240.8" font-family="Times,serif" font-size="14.00">ConfigurationService</text>
</g>
<!-- ConfigurationService&#45;&gt;ConfigurationModule -->
<g id="edge14" class="edge">
<title>ConfigurationService&#45;&gt;ConfigurationModule</title>
<path fill="none" stroke="black" d="M514.98,-262.63C514.98,-262.63 514.98,-292.94 514.98,-292.94"/>
<polygon fill="black" stroke="black" points="511.48,-292.94 514.98,-302.94 518.48,-292.94 511.48,-292.94"/>
</g>
<!-- RedisConnectService -->
<g id="node18" class="node">
<title>RedisConnectService</title>
<ellipse fill="#fdb462" stroke="black" cx="1112" cy="-169" rx="94.34" ry="18"/>
<text text-anchor="middle" x="1112" y="-164.8" font-family="Times,serif" font-size="14.00">RedisConnectService</text>
</g>
<!-- RedisConnectService&#45;&gt;RedisModule -->
<g id="edge19" class="edge">
<title>RedisConnectService&#45;&gt;RedisModule</title>
<path fill="none" stroke="black" d="M1112,-150.73C1112,-132.44 1112,-107 1112,-107 1112,-107 413.75,-107 413.75,-107"/>
<polygon fill="black" stroke="black" points="413.75,-103.5 403.75,-107 413.75,-110.5 413.75,-103.5"/>
</g>
<!-- RedisPromiseService -->
<g id="node19" class="node">
<title>RedisPromiseService</title>
<ellipse fill="#fdb462" stroke="black" cx="906" cy="-169" rx="93.77" ry="18"/>
<text text-anchor="middle" x="906" y="-164.8" font-family="Times,serif" font-size="14.00">RedisPromiseService</text>
</g>
<!-- RedisPromiseService&#45;&gt;RedisModule -->
<g id="edge20" class="edge">
<title>RedisPromiseService&#45;&gt;RedisModule</title>
<path fill="none" stroke="black" d="M906,-150.96C906,-134.27 906,-112 906,-112 906,-112 413.78,-112 413.78,-112"/>
<polygon fill="black" stroke="black" points="413.78,-108.5 403.78,-112 413.78,-115.5 413.78,-108.5"/>
</g>
<!-- RedisSubscriberService -->
<g id="node20" class="node">
<title>RedisSubscriberService</title>
<ellipse fill="#fdb462" stroke="black" cx="691" cy="-169" rx="103.07" ry="18"/>
<text text-anchor="middle" x="691" y="-164.8" font-family="Times,serif" font-size="14.00">RedisSubscriberService</text>
</g>
<!-- RedisSubscriberService&#45;&gt;RedisModule -->
<g id="edge21" class="edge">
<title>RedisSubscriberService&#45;&gt;RedisModule</title>
<path fill="none" stroke="black" d="M691,-150.81C691,-135.82 691,-117 691,-117 691,-117 413.95,-117 413.95,-117"/>
<polygon fill="black" stroke="black" points="413.95,-113.5 403.95,-117 413.95,-120.5 413.95,-113.5"/>
</g>
<!-- RedisSubscribeExpiredService -->
<g id="node21" class="node">
<title>RedisSubscribeExpiredService</title>
<ellipse fill="#fdb462" stroke="black" cx="967" cy="-245" rx="130.78" ry="18"/>
<text text-anchor="middle" x="967" y="-240.8" font-family="Times,serif" font-size="14.00">RedisSubscribeExpiredService</text>
</g>
<!-- RedisSubscribeExpiredService&#45;&gt;SessionModule -->
<g id="edge24" class="edge">
<title>RedisSubscribeExpiredService&#45;&gt;SessionModule</title>
<path fill="none" stroke="black" d="M967,-263.01C967,-285.49 967,-321 967,-321 967,-321 737.36,-321 737.36,-321"/>
<polygon fill="black" stroke="black" points="737.36,-317.5 727.36,-321 737.36,-324.5 737.36,-317.5"/>
</g>
</g>
</svg>
